# xmcd CD database file
#
# Track frame offsets:
#	150
#	7430
#	23095
#	44015
#	61257
#	79047
#	98597
#	117662
#	133420
#	165427
#	187697
#	212902
#
# Disc length: 3198 seconds
#
# Revision: 0
# Processed by: cddbd v1.5.1PL0 Copyright (c) Steve Scherf et al.
# Submitted via: CDex 1.51
#
DISCID=a40c7c0c
DTITLE=The SPACE COWBOYS - CHILDREN OF DISTORTION
DYEAR=1996
DGENRE=Rock
TTITLE0=★★★★
TTITLE1=SO YOUNG
TTITLE2=SHINING IN THE BED
TTITLE3=1000 SUNS
TTITLE4=SILVY
TTITLE5=CHILD STAR
TTITLE6=HOT LOVE
TTITLE7=PARADOX HEAVEN
TTITLE8=ALL GROWN UP
TTITLE9=EVEN LOVE DIES
TTITLE10=NIGHT FLIGHT
TTITLE11=DEPARTURE
EXTD=YEAR: 1996
EXTT0=
EXTT1=
EXTT2=
EXTT3=
EXTT4=
EXTT5=
EXTT6=
EXTT7=
EXTT8=
EXTT9=
EXTT10=
EXTT11=
PLAYORDER=
